<svg xmlns="http://www.w3.org/2000/svg" viewBox="0 0 358.363 69.1"><defs><style>.a{fill:#333;}.b{fill:#ec6f2d;}</style></defs><g transform="translate(4817.963 1661.6)"><circle class="a" cx="6.2" cy="6.2" r="6.2" transform="translate(-4472 -1605.6)"/><path class="b" d="M5.6,57A23.582,23.582,0,0,1,18,53.8a32.919,32.919,0,0,1,17.1,4.3v2.5c-4.7-3-10.3-4.5-17-4.5A20.931,20.931,0,0,0,7.4,58.7,8.478,8.478,0,0,0,3,66.5a8.862,8.862,0,0,0,3.6,7.3,23.386,23.386,0,0,0,8.7,4.1l10.2,2.7a22.3,22.3,0,0,1,8.8,4.5,10.335,10.335,0,0,1,3.6,8.2,10.641,10.641,0,0,1-5.3,9.7,26.055,26.055,0,0,1-13.4,3.2,43.348,43.348,0,0,1-10.5-1.4A27.13,27.13,0,0,1,0,101.2V98.7c5.3,3.5,11.7,5.2,19.1,5.2a24.11,24.11,0,0,0,11.7-2.6,8.994,8.994,0,0,0,1.1-15.1,24.62,24.62,0,0,0-8.8-4c-3.4-.9-6.9-1.8-10.3-2.7A20.64,20.64,0,0,1,4,74.9,10.684,10.684,0,0,1,.4,66.6C.4,62.3,2.1,59.1,5.6,57Z" transform="translate(-4742 -1699)"/><path class="b" d="M54.6,58.5a22.367,22.367,0,0,1,14.3-4.7v2.5A20.7,20.7,0,0,0,54,61.8a25.731,25.731,0,0,0-7.8,13.5v29.9H43.7V54.9H46V70.3A26.429,26.429,0,0,1,54.6,58.5Z" transform="translate(-4742 -1699)"/><path class="a" d="M109.1,87.4H78c1.1,5.1,4.6,8.2,9.1,8.2,3.1,0,6.8-.8,9-4.9l12,2.5c-3.6,9-11.3,13.3-21,13.3-12.3,0-22.4-9-22.4-22.5,0-13.4,10.1-22.5,22.5-22.5,12,0,21.6,8.6,21.9,22.5ZM78.2,79.2H95.7c-1.3-4.6-4.6-6.7-8.5-6.7A9.408,9.408,0,0,0,78.2,79.2Z" transform="translate(-4742 -1699)"/><path class="a" d="M154.9,79.2v26H141.5V82c0-5-3-8.4-7.3-8.4-5.3,0-8.8,3.6-8.8,11.8v19.7H111.9V62.8h13.5v4.1a17.389,17.389,0,0,1,13-5.3C148.3,61.5,154.9,68.5,154.9,79.2Z" transform="translate(-4742 -1699)"/><path class="a" d="M184.9,105.2H171.1L153.5,62.7h14.3L178,88.9l10.1-26.2h14.3Z" transform="translate(-4742 -1699)"/><path class="a" d="M268.2,84c0,13.4-10.6,22.4-23.2,22.4-12.8,0-23.5-9-23.5-22.4S232.1,61.7,245,61.7C257.5,61.7,268.2,70.6,268.2,84Zm-13,0c0-6.6-5-11-10.2-11a10.617,10.617,0,0,0-10.5,11c0,6.7,5,11,10.5,11C250.2,95,255.2,90.7,255.2,84Z" transform="translate(-4742 -1699)"/><path class="b" d="M207.3,52.1l5.8-14.2a8.21,8.21,0,0,0-2.8-.5,7.6,7.6,0,0,0-7.8,7.7A7.422,7.422,0,0,0,207.3,52.1Z" transform="translate(-4741 -1699)"/><rect class="a" width="13.5" height="42.4" transform="translate(-4537.5 -1636.2)"/><g transform="translate(-343.964 37.4)"><path class="b" d="M323.127,10.975,327.191.542,311.068,0,304.7,14.633l1.761.948,2.845-5.284Z" transform="translate(-4728.975 -1699)"/><path class="a" d="M319.486,14.339l-13.143,24.93,11.381-25.879L296.588,3.5l-8.942,19.511L268,21.52l15.446,6.775-6.5,19.511,7.316,1.9V67.858l28.724-7.181,15.31-42.137Zm-27.1,23.44a1.9,1.9,0,1,1,1.9-1.9A1.938,1.938,0,0,1,292.388,37.779Z" transform="translate(-4742 -1697.758)"/></g></g></svg>